Coordinates
version=1
nRows=16
nColumns=28
inDegrees=yes

Units are S.I. units (second, meters, Newtons, ...)
Angles are in degrees.

endheader
time	pelvis_tilt	pelvis_list	pelvis_rotation	pelvis_tx	pelvis_ty	pelvis_tz	hip_flexion_r	hip_adduction_r	hip_rotation_r	knee_angle_r	ankle_angle_r	subtalar_angle_r	mtp_angle_r	hip_flexion_l	hip_adduction_l	hip_rotation_l	knee_angle_l	socket_flexion	socket_adduction	socket_rotation	socket_tx	socket_ty	socket_tz	foot_flex	lumbar_extension	lumbar_bending	lumbar_rotation
      0.00000000	      0.66766299	     -6.36487139	    -11.09507491	     -0.87531642	      0.99485890	      0.28037921	    -26.72542487	      7.40396619	      6.43009772	     -2.52034983	     11.35948376	     -7.57023335	      5.08673328	     26.95727559	    -11.52584685	     -6.12371160	    -13.01270753	     -2.45541519	      0.00000000	      0.00000000	      0.00000000	     -0.00181401	      0.00000000	     -0.83427287	    -12.52153743	      3.77501611	     12.83216149
      0.00416667	      0.59880172	     -6.39940027	    -11.01546489	     -0.86972054	      0.99418780	      0.27998797	    -26.84782631	      7.41535081	      6.50071810	     -2.72658959	     11.31734372	     -7.56251609	      5.08661818	     26.81390151	    -11.43629053	     -6.10669164	    -13.02560265	     -2.49033437	      0.00000000	      0.00000000	      0.00000000	     -0.00206679	      0.00000000	     -0.91965142	    -12.37100302	      3.82144265	     12.83755294
      0.00833333	      0.53491196	     -6.49755865	    -11.04111415	     -0.86405815	      0.99359077	      0.27962471	    -26.84289182	      7.44306641	      6.49203496	     -3.22065614	     11.12370922	     -7.61089148	      5.07352148	     26.57524075	    -11.44271981	     -6.07158142	    -12.89997315	     -2.51101597	      0.00000000	      0.00000000	      0.00000000	     -0.00257287	      0.00000000	     -1.42531374	    -12.28932717	      3.94030698	     12.83835755
      0.01250000	      0.46506118	     -6.62108072	    -11.07523142	     -0.85819561	      0.99298520	      0.27926008	    -26.82099696	      7.49340315	      6.48434897	     -3.76286789	     10.93415895	     -7.66034115	      5.08320062	     26.30989064	    -11.47535980	     -6.08130812	    -12.71608050	     -2.44154188	      0.00000000	      0.00000000	      0.00000000	     -0.00309363	      0.00000000	     -1.71174236	    -12.18799216	      4.10317516	     12.86372758
      0.01666667	      0.38656355	     -6.66336014	    -11.00152890	     -0.85189887	      0.99225106	      0.27883633	    -26.93505353	      7.50536719	      6.55864885	     -4.02926386	     10.87671966	     -7.65774583	      5.08485657	     26.11933806	    -11.38688496	     -6.06009987	    -12.71657253	     -2.47123138	      0.00000000	      0.00000000	      0.00000000	     -0.00356961	      0.00000000	     -1.78997896	    -12.00862928	      4.16224307	     12.87170220
      0.02083333	      0.24850148	     -6.87104512	    -11.21692812	     -0.84585652	      0.99168056	      0.27864116	    -26.70638961	      7.57716967	      6.61148593	     -4.90028455	     10.60121572	     -7.72534249	      5.21424635	     25.68008545	    -11.57194136	     -6.06826250	    -12.01554003	     -2.07412588	      0.00000000	      0.00000000	      0.00000000	     -0.00449057	      0.00000000	     -2.18150273	    -11.89704457	      4.41904035	     13.02357395
      0.02500000	      0.17383411	     -6.90095572	    -11.14807062	     -0.83926102	      0.99101506	      0.27821527	    -26.81297673	      7.57169596	      6.69339076	     -5.19559358	     10.51839847	     -7.72451675	      5.21623555	     25.45714172	    -11.47066631	     -6.02653892	    -12.00741937	     -2.11345268	      0.00000000	      0.00000000	      0.00000000	     -0.00503345	      0.00000000	     -2.34192804	    -11.70008907	      4.46474284	     13.03292094
      0.02916667	      0.09333708	     -6.99087554	    -11.21998348	     -0.83293587	      0.99047847	      0.27790084	    -26.68872875	      7.57866020	      6.67244816	     -5.92452204	     10.16970166	     -7.82368009	      5.22041260	     25.11993358	    -11.47980578	     -5.99995374	    -11.73128407	     -2.00938624	      0.00000000	      0.00000000	      0.00000000	     -0.00579854	      0.00000000	     -2.88508864	    -11.60568009	      4.57302367	     13.06323096
      0.03333333	     -0.03129348	     -7.11435606	    -11.37276776	     -0.82620040	      0.98990168	      0.27768980	    -26.57525037	      7.57754005	      6.68713413	     -6.58079312	      9.87665822	     -7.96727270	      5.35588134	     24.65367307	    -11.55377080	     -6.02024177	    -11.13485228	     -1.65838138	      0.00000000	      0.00000000	      0.00000000	     -0.00684779	      0.00000000	     -3.04360854	    -11.37312515	      4.74999666	     13.18757769
      0.03750000	      0.18119203	     -7.00251502	    -11.62505291	     -0.81937548	      0.99000626	      0.27784279	    -26.87508796	      7.24083630	      7.05911942	     -7.02446674	      9.21331285	     -8.27685551	      6.66050792	     23.47150907	    -11.36317044	     -6.37134392	     -9.61039605	     -0.78431845	      0.00000000	      0.00000000	      0.00000000	     -0.00783998	      0.00000000	     -3.38359342	    -11.52033771	      4.46314903	     13.60479574
      0.04166667	      0.10382295	     -7.05137688	    -11.60174628	     -0.81272015	      0.98953591	      0.27742690	    -26.79048941	      7.24492977	      7.06100555	     -7.66596889	      8.90707166	     -8.34996734	      6.65618341	     23.20323857	    -11.30211714	     -6.27743489	     -9.56562443	     -0.78638914	      0.00000000	      0.00000000	      0.00000000	     -0.00856191	      0.00000000	     -3.68794889	    -11.36913450	      4.53586986	     13.56182881
      0.04583333	      0.02469194	     -7.09173754	    -11.57150814	     -0.80603700	      0.98909668	      0.27703926	    -26.68978021	      7.25308262	      7.10402187	     -8.31826843	      8.59057596	     -8.43833588	      6.65018122	     22.92665411	    -11.23517387	     -6.15405092	     -9.49492728	     -0.75086613	      0.00000000	      0.00000000	      0.00000000	     -0.00931066	      0.00000000	     -3.94282019	    -11.20953084	      4.58581275	     13.52778761
      0.05000000	     -0.05578463	     -7.12104615	    -11.55705045	     -0.79937953	      0.98874713	      0.27667132	    -26.54746816	      7.24717455	      7.14134433	     -9.02972889	      8.21541850	     -8.55649045	      6.63460699	     22.64444970	    -11.16754498	     -6.03983876	     -9.40781154	     -0.68349576	      0.00000000	      0.00000000	      0.00000000	     -0.01007137	      0.00000000	     -4.21469059	    -11.04924736	      4.62490985	     13.49182200
      0.05416667	     -0.13817395	     -7.12987568	    -11.53617137	     -0.79263529	      0.98844495	      0.27631230	    -26.38903214	      7.22921758	      7.18824709	     -9.76304978	      7.81356301	     -8.70171008	      6.61957752	     22.34982467	    -11.08096840	     -5.93805065	     -9.30566312	     -0.61496433	      0.00000000	      0.00000000	      0.00000000	     -0.01083122	      0.00000000	     -4.44530809	    -10.86756829	      4.64778357	     13.45387085
      0.05833333	     -0.22897958	     -7.12745380	    -11.53570277	     -0.78591329	      0.98821894	      0.27595756	    -26.16548687	      7.19371208	      7.19996325	    -10.56559130	      7.32495214	     -8.91668726	      6.61190182	     22.04887422	    -10.99353234	     -5.87124839	     -9.16879162	     -0.49212474	      0.00000000	      0.00000000	      0.00000000	     -0.01161597	      0.00000000	     -4.67055726	    -10.68244885	      4.65668167	     13.41098044
      0.06250000	     -0.46322036	     -7.05183688	    -11.69892779	     -0.77881587	      0.98799202	      0.27594101	    -25.87836943	      7.07476118	      7.60696022	    -11.20197143	      6.39760607	     -9.80333667	      7.49249175	     21.58826079	    -10.90350285	     -5.96309013	     -8.31144812	      0.07913364	      0.00000000	      0.00000000	      0.00000000	     -0.01252924	      0.00000000	     -4.83701228	    -10.25191254	      4.59549214	     13.53407660
